<?xml version="1.0" encoding="UTF-8"?>
<svg id="Layer_2" xmlns="http://www.w3.org/2000/svg" viewBox="0 0 979 203.73">
  <defs>
    <style>
      .cls-1 {
        fill: #333;
      }
    </style>
  </defs>
  <g>
    <path class="cls-1" d="M260.32,58.11h.23V2.38h15.04v81.37h-18.69l-20.06-56.98h-.23v56.98h-15.04V2.38h18.92l19.83,55.73Z"/>
    <path class="cls-1" d="M287.78,2.38h16.41v81.37h-16.41V2.38Z"/>
    <path class="cls-1" d="M349.04,16.91c-1.41-2.7-3.97-4.05-7.69-4.05-2.05,0-3.74.55-5.07,1.65-1.33,1.1-2.38,2.89-3.13,5.36-.76,2.47-1.29,5.7-1.6,9.69-.3,3.99-.46,8.87-.46,14.64,0,6.15.21,11.13.63,14.93.42,3.8,1.06,6.74,1.94,8.83.87,2.09,1.98,3.5,3.31,4.22,1.33.72,2.87,1.08,4.62,1.08,1.44,0,2.79-.25,4.05-.74,1.25-.49,2.34-1.48,3.25-2.96.91-1.48,1.63-3.57,2.16-6.27.53-2.7.8-6.25.8-10.66h16.41c0,4.41-.34,8.59-1.03,12.54-.68,3.95-1.96,7.41-3.82,10.37-1.86,2.96-4.48,5.28-7.86,6.95-3.38,1.67-7.77,2.51-13.16,2.51-6.15,0-11.05-.99-14.7-2.96s-6.44-4.82-8.38-8.55c-1.94-3.72-3.19-8.17-3.76-13.33-.57-5.17-.85-10.86-.85-17.1s.29-11.83.85-17.04c.57-5.2,1.82-9.67,3.76-13.39,1.94-3.72,4.73-6.63,8.38-8.72,3.65-2.09,8.55-3.13,14.7-3.13s10.47.95,13.85,2.85c3.38,1.9,5.91,4.31,7.58,7.24,1.67,2.93,2.72,6.08,3.13,9.46.42,3.38.63,6.55.63,9.52h-16.41c0-5.93-.7-10.24-2.11-12.94Z"/>
    <path class="cls-1" d="M394,34.98h.23l20.74-32.6h17.78l-22.11,34.87,24.62,46.5h-18.46l-16.75-33.39-6.04,9.23v24.16h-16.41V2.38h16.41v32.6Z"/>
    <path class="cls-1" d="M472.87,2.38l9,60.18h.23l9.57-60.18h15.73l9.57,60.18h.23l9-60.18h15.73l-14.82,81.37h-18.35l-9.12-59.04h-.23l-9.12,59.04h-18.35l-14.81-81.37h15.73Z"/>
    <path class="cls-1" d="M564.95,2.38v31.11h19.15V2.38h16.41v81.37h-16.41v-36.13h-19.15v36.13h-16.41V2.38h16.41Z"/>
    <path class="cls-1" d="M612.71,2.38h16.41v81.37h-16.41V2.38Z"/>
    <path class="cls-1" d="M688.95,15.83h-17.78v67.93h-16.41V15.83h-17.78V2.38h51.97v13.45Z"/>
    <path class="cls-1" d="M743.66,15.83h-17.78v67.93h-16.41V15.83h-17.78V2.38h51.97v13.45Z"/>
    <path class="cls-1" d="M780.58,2.38l21.54,81.37h-17.1l-3.76-17.21h-21.66l-3.76,17.21h-17.1l21.54-81.37h20.29ZM778.42,53.1l-7.87-36.58h-.23l-7.86,36.58h15.96Z"/>
    <path class="cls-1" d="M824.23,34.98h.23l20.74-32.6h17.78l-22.11,34.87,24.62,46.5h-18.46l-16.75-33.39-6.04,9.23v24.16h-16.41V2.38h16.41v32.6Z"/>
    <path class="cls-1" d="M914.5,15.83h-29.06v19.15h27.35v13.45h-27.35v21.88h30.2v13.45h-46.61V2.38h45.47v13.45Z"/>
    <path class="cls-1" d="M954.15,2.38c6.84,0,12.16,1.73,15.96,5.19,3.8,3.46,5.7,8.72,5.7,15.78,0,5.47-1.1,9.93-3.3,13.39-2.2,3.46-5.62,5.68-10.26,6.67v.23c4.1.61,7.1,1.94,9,3.99,1.9,2.05,3.08,5.36,3.53,9.92.15,1.52.26,3.17.34,4.96.07,1.79.15,3.78.23,5.98.15,4.33.38,7.64.68,9.92.46,2.28,1.44,3.84,2.96,4.67v.68h-17.78c-.84-1.14-1.37-2.45-1.6-3.93s-.38-3.02-.46-4.62l-.46-15.61c-.15-3.19-.95-5.7-2.39-7.52-1.44-1.82-3.88-2.74-7.29-2.74h-8.78v34.42h-16.41V2.38h30.32ZM947.09,37.94c3.95,0,6.99-.93,9.12-2.79,2.13-1.86,3.19-5,3.19-9.4,0-7.52-3.8-11.28-11.4-11.28h-7.75v23.48h6.84Z"/>
    <path class="cls-1" d="M250.29,121.1c4.18,0,7.69.7,10.54,2.11,2.85,1.41,5.15,3.25,6.9,5.53,1.75,2.28,3,4.88,3.76,7.81.76,2.93,1.14,5.91,1.14,8.95,0,4.18-.63,7.83-1.88,10.94-1.25,3.12-3,5.66-5.24,7.64-2.24,1.98-4.96,3.46-8.15,4.44-3.19.99-6.72,1.48-10.6,1.48h-8.78v32.48h-16.41v-81.37h28.72ZM245.28,157.91c3.27,0,5.91-.99,7.92-2.96,2.01-1.97,3.02-5.05,3.02-9.23s-.87-7.22-2.62-9.35c-1.75-2.13-4.67-3.19-8.78-3.19h-6.84v24.73h7.29Z"/>
    <path class="cls-1" d="M297.13,121.1v31.11h19.15v-31.11h16.41v81.37h-16.41v-36.13h-19.15v36.13h-16.41v-81.37h16.41Z"/>
    <path class="cls-1" d="M343.23,144.75c.57-5.2,1.82-9.67,3.76-13.39,1.94-3.72,4.73-6.63,8.38-8.72,3.65-2.09,8.55-3.13,14.7-3.13s11.05,1.04,14.7,3.13c3.65,2.09,6.44,5,8.38,8.72,1.94,3.72,3.19,8.19,3.76,13.39.57,5.2.85,10.88.85,17.04s-.28,11.93-.85,17.1c-.57,5.17-1.82,9.61-3.76,13.33-1.94,3.72-4.73,6.57-8.38,8.55-3.65,1.97-8.55,2.96-14.7,2.96s-11.05-.99-14.7-2.96c-3.65-1.97-6.44-4.82-8.38-8.55-1.94-3.72-3.19-8.17-3.76-13.33-.57-5.17-.85-10.86-.85-17.1s.29-11.83.85-17.04ZM359.19,175.75c.27,3.84.8,6.95,1.6,9.35s1.94,4.14,3.42,5.24c1.48,1.1,3.44,1.65,5.87,1.65s4.39-.55,5.87-1.65c1.48-1.1,2.62-2.85,3.42-5.24.8-2.39,1.33-5.51,1.6-9.35.27-3.84.4-8.49.4-13.96s-.13-10.1-.4-13.9c-.27-3.8-.8-6.91-1.6-9.35-.8-2.43-1.94-4.2-3.42-5.3-1.48-1.1-3.44-1.65-5.87-1.65s-4.39.55-5.87,1.65c-1.48,1.1-2.62,2.87-3.42,5.3-.8,2.43-1.33,5.55-1.6,9.35-.27,3.8-.4,8.43-.4,13.9s.13,10.13.4,13.96Z"/>
    <path class="cls-1" d="M455.09,134.55h-17.78v67.93h-16.41v-67.93h-17.78v-13.45h51.97v13.45Z"/>
    <path class="cls-1" d="M461.3,144.75c.57-5.2,1.82-9.67,3.76-13.39,1.94-3.72,4.73-6.63,8.38-8.72,3.65-2.09,8.55-3.13,14.7-3.13s11.05,1.04,14.7,3.13c3.65,2.09,6.44,5,8.38,8.72,1.94,3.72,3.19,8.19,3.76,13.39.57,5.2.86,10.88.86,17.04s-.29,11.93-.86,17.1c-.57,5.17-1.82,9.61-3.76,13.33-1.94,3.72-4.73,6.57-8.38,8.55-3.65,1.97-8.55,2.96-14.7,2.96s-11.06-.99-14.7-2.96c-3.65-1.97-6.44-4.82-8.38-8.55-1.94-3.72-3.19-8.17-3.76-13.33-.57-5.17-.85-10.86-.85-17.1s.28-11.83.85-17.04ZM477.26,175.75c.27,3.84.8,6.95,1.6,9.35s1.94,4.14,3.42,5.24c1.48,1.1,3.44,1.65,5.87,1.65s4.39-.55,5.87-1.65c1.48-1.1,2.62-2.85,3.42-5.24s1.33-5.51,1.6-9.35c.27-3.84.4-8.49.4-13.96s-.13-10.1-.4-13.9c-.27-3.8-.8-6.91-1.6-9.35-.8-2.43-1.94-4.2-3.42-5.3-1.48-1.1-3.44-1.65-5.87-1.65s-4.39.55-5.87,1.65c-1.48,1.1-2.62,2.87-3.42,5.3-.8,2.43-1.33,5.55-1.6,9.35-.27,3.8-.4,8.43-.4,13.9s.13,10.13.4,13.96Z"/>
    <path class="cls-1" d="M561.14,140.59c-.34-1.6-.89-3.06-1.65-4.39-.76-1.33-1.73-2.43-2.91-3.3-1.18-.87-2.6-1.31-4.28-1.31-3.95,0-6.8,2.21-8.55,6.61-1.75,4.41-2.62,11.7-2.62,21.88,0,4.86.15,9.27.46,13.22.3,3.95.85,7.31,1.65,10.09.8,2.77,1.94,4.9,3.42,6.38s3.4,2.22,5.76,2.22c.99,0,2.07-.27,3.25-.8,1.18-.53,2.28-1.33,3.3-2.39,1.02-1.06,1.88-2.41,2.56-4.05.68-1.63,1.03-3.55,1.03-5.76v-8.32h-10.83v-12.08h26.55v43.88h-12.08v-7.52h-.23c-1.98,3.19-4.35,5.45-7.12,6.78-2.77,1.33-6.1,1.99-9.97,1.99-5.01,0-9.1-.87-12.25-2.62-3.15-1.75-5.62-4.44-7.41-8.09-1.79-3.65-2.98-8.15-3.59-13.5-.61-5.36-.91-11.57-.91-18.63s.44-12.84,1.31-18.01c.87-5.17,2.37-9.48,4.5-12.94,2.13-3.46,4.94-6.06,8.43-7.81,3.49-1.75,7.87-2.62,13.11-2.62,8.96,0,15.42,2.22,19.38,6.67,3.95,4.44,5.93,10.81,5.93,19.09h-15.73c0-1.52-.17-3.08-.51-4.67Z"/>
    <path class="cls-1" d="M619.21,121.1c6.84,0,12.15,1.73,15.96,5.19,3.8,3.46,5.7,8.72,5.7,15.78,0,5.47-1.1,9.93-3.3,13.39-2.21,3.46-5.63,5.68-10.26,6.67v.23c4.1.61,7.1,1.94,9,3.99,1.9,2.05,3.08,5.36,3.53,9.92.15,1.52.27,3.17.34,4.96.08,1.79.15,3.78.23,5.98.15,4.33.38,7.64.68,9.92.46,2.28,1.44,3.84,2.96,4.67v.68h-17.78c-.84-1.14-1.37-2.45-1.6-3.93s-.38-3.02-.46-4.62l-.46-15.61c-.15-3.19-.95-5.7-2.39-7.52-1.44-1.82-3.88-2.74-7.29-2.74h-8.78v34.42h-16.41v-81.37h30.31ZM612.14,156.66c3.95,0,6.99-.93,9.12-2.79,2.13-1.86,3.19-5,3.19-9.4,0-7.52-3.8-11.28-11.4-11.28h-7.75v23.48h6.84Z"/>
    <path class="cls-1" d="M688.39,121.1l21.54,81.37h-17.1l-3.76-17.21h-21.65l-3.76,17.21h-17.09l21.54-81.37h20.29ZM686.22,171.82l-7.86-36.58h-.23l-7.86,36.58h15.96Z"/>
    <path class="cls-1" d="M744.35,121.1c4.18,0,7.69.7,10.54,2.11,2.85,1.41,5.15,3.25,6.89,5.53,1.75,2.28,3,4.88,3.76,7.81.76,2.93,1.14,5.91,1.14,8.95,0,4.18-.63,7.83-1.88,10.94-1.25,3.12-3,5.66-5.24,7.64-2.24,1.98-4.96,3.46-8.15,4.44-3.19.99-6.72,1.48-10.6,1.48h-8.78v32.48h-16.41v-81.37h28.72ZM739.33,157.91c3.26,0,5.91-.99,7.92-2.96,2.01-1.97,3.02-5.05,3.02-9.23s-.87-7.22-2.62-9.35c-1.75-2.13-4.67-3.19-8.78-3.19h-6.84v24.73h7.29Z"/>
    <path class="cls-1" d="M791.19,121.1v31.11h19.15v-31.11h16.41v81.37h-16.41v-36.13h-19.15v36.13h-16.41v-81.37h16.41Z"/>
    <path class="cls-1" d="M861.96,152.55h.23l11.4-31.46h17.78l-21.08,49.35v32.03h-16.41v-32.03l-21.08-49.35h18.46l10.71,31.46Z"/>
  </g>
  <g>
    <g>
      <path class="cls-1" d="M45.13,0H8.35C3.74,0,0,3.74,0,8.35v36.78C10.48,26.16,26.16,10.48,45.13,0Z"/>
      <path class="cls-1" d="M201.03,45.13V8.35c0-4.61-3.74-8.35-8.35-8.35h-36.78c18.97,10.48,34.65,26.16,45.13,45.13Z"/>
      <path class="cls-1" d="M0,155.9v36.78c0,4.61,3.74,8.35,8.35,8.35h36.78c-18.97-10.48-34.65-26.16-45.13-45.13Z"/>
      <path class="cls-1" d="M155.9,201.03h36.78c4.61,0,8.35-3.74,8.35-8.35v-36.78c-10.48,18.97-26.16,34.65-45.13,45.13Z"/>
    </g>
    <path class="cls-1" d="M99.72,3.17C45.52,3.17,1.58,47.1,1.58,101.31s43.94,98.14,98.14,98.14,98.14-43.94,98.14-98.14S153.92,3.17,99.72,3.17ZM98.93,174.12c-40.65,0-73.61-32.95-73.61-73.61S58.28,26.91,98.93,26.91s73.61,32.95,73.61,73.61-32.95,73.61-73.61,73.61Z"/>
    <path class="cls-1" d="M133.84,104.32h-.16c-15.25,0-27.62-12.37-27.62-27.62h0c0-12.82,8.74-23.57,20.59-26.68-8.36-4.64-17.97-7.28-28.21-7.28h-.34c-32.17,0-58.25,26.08-58.25,58.25h0c0,32.17,26.08,58.25,58.25,58.25h.34c32.17,0,58.25-26.08,58.25-58.25h0c0-2.72-.2-5.4-.56-8.03-5.02,6.87-13.12,11.36-22.29,11.36Z"/>
  </g>
</svg>